<svg width="22" height="16" viewBox="0 0 22 16" fill="none" xmlns="http://www.w3.org/2000/svg">
<path fill-rule="evenodd" clip-rule="evenodd" d="M9.1114 7.25268L1.23835 0H20.7602L10.9893 8.9703L9.43072 7.53591C9.41646 7.48261 9.38902 7.43393 9.35082 7.39449C9.28868 7.3216 9.20422 7.27184 9.11115 7.25308L9.1114 7.25268ZM0.35966 0.424145C0.128323 0.677074 -0.000256846 1.00914 1.17175e-05 1.35348V14.6669C-0.000795283 14.8684 0.0400915 15.068 0.119715 15.2527L8.31229 7.71736L0.35966 0.424145ZM11.2895 9.89922H11.2893C11.1217 10.061 10.8578 10.061 10.6899 9.89922L8.97161 8.32342L0.759062 15.879C0.906201 15.9404 1.06087 15.9812 1.21877 16H20.7606C20.9255 15.9837 21.0871 15.9429 21.2402 15.879L13.0077 8.32342L11.2895 9.89922ZM21.6203 0.424145L13.6673 7.71721L21.8599 15.2526V15.2528C21.946 15.0693 21.9936 14.8699 21.9998 14.667V1.35361C22.006 1.00413 21.8685 0.667705 21.6202 0.424273L21.6203 0.424145Z" fill="white"/>
</svg>
