<svg width="104" height="103" viewBox="0 0 104 103" fill="none" xmlns="http://www.w3.org/2000/svg">
<circle cx="52" cy="51" r="50.5" stroke="white"/>
<path d="M103 51.305C103 60.0584 100.72 68.6626 96.3815 76.2801C92.0431 83.8975 85.7945 90.2686 78.2438 94.7729C70.6931 99.2773 62.0977 101.761 53.2945 101.984C44.4913 102.206 35.7802 100.158 28.0092 96.0408C20.2383 91.9231 13.6724 85.8755 8.95078 78.4867C4.22913 71.0979 1.51262 62.6198 1.06572 53.8776C0.618831 45.1355 2.45678 36.4273 6.40064 28.6008C10.3445 20.7744 16.2599 14.0963 23.5709 9.21687" stroke="white" stroke-linejoin="round"/>
<path d="M67.9758 51.6145L44.9337 64.9179L44.9337 38.3111L67.9758 51.6145Z" fill="white"/>
</svg>
