<svg width="15" height="21" viewBox="0 0 15 21" fill="none" xmlns="http://www.w3.org/2000/svg">
<path d="M14.9998 7.37905C15.0037 6.8004 14.9369 6.2235 14.8006 5.66034C14.1822 3.18599 12.321 1.19302 9.86518 0.375803C8.25856 -0.148331 6.51898 -0.1235 4.92835 0.445866C3.33773 1.01544 1.98964 2.0963 1.10275 3.51329C0.253751 4.90076 -0.120815 6.51906 0.0342098 8.1309C0.133029 9.28805 0.525161 10.3842 0.970308 11.452C1.97023 13.804 3.19131 16.059 4.61767 18.1876C5.13208 19.0039 5.71214 19.7781 6.35292 20.5029C6.646 20.8195 7.06139 21 7.49707 21C7.93252 21 8.34785 20.8195 8.64098 20.5029C10.2079 18.8088 11.389 16.6801 12.4713 14.6698C13.675 12.4334 14.9886 9.95127 14.9998 7.37913L14.9998 7.37905ZM7.49696 3.03853C8.66456 3.03964 9.78433 3.4946 10.6119 4.30431C11.4395 5.11381 11.9077 6.21215 11.914 7.35953V7.37904C11.9122 8.92861 11.0699 10.3598 9.70399 11.134C8.3381 11.9082 6.65564 11.9082 5.28994 11.134C3.92405 10.3597 3.08158 8.92861 3.07973 7.37904V7.35953C3.08605 6.21215 3.55421 5.11381 4.38179 4.30431C5.20936 3.49459 6.32913 3.03967 7.49696 3.03853Z" fill="white"/>
</svg>
