<svg width="19" height="17" viewBox="0 0 19 17" fill="none" xmlns="http://www.w3.org/2000/svg">
<path d="M18.2631 13.731C18.2323 13.8598 18.1823 13.9833 18.1148 14.0972C17.5966 14.9446 16.9639 15.7166 16.2347 16.3911C16.0168 16.5661 15.7874 16.7265 15.548 16.8707L14.9988 16.9054C14.7334 16.8707 14.4661 16.8468 14.2024 16.7992C13.0276 16.559 11.9005 16.1259 10.8669 15.5178C9.09285 14.5219 7.50566 13.2807 5.98446 11.9423C4.59067 10.7453 3.31607 9.41602 2.17839 7.97341C1.39662 6.95549 0.708368 5.88638 0.290986 4.65975C0.188456 4.35774 0.118841 4.04456 0.0347311 3.74435L0 3.19514C0.232546 2.50128 0.701126 1.96673 1.1937 1.45224C1.55988 1.07518 1.93514 0.720036 2.3214 0.368487H2.32125C2.64048 0.0658744 3.08775 -0.0612651 3.51858 0.0279713C3.76366 0.0646655 3.9846 0.196192 4.13362 0.39416C4.9208 1.4376 5.69893 2.48845 6.51359 3.51558C6.6812 3.71626 6.78902 3.95998 6.82451 4.21895C6.86015 4.47792 6.82225 4.74171 6.71503 4.98014C6.61613 5.24198 6.48626 5.49282 6.36531 5.74726C6.22623 6.04202 6.08882 6.3386 5.93691 6.62594C5.87107 6.71503 5.88542 6.83991 5.96983 6.91149C6.51903 7.47352 7.04256 8.06123 7.61744 8.60123L7.61759 8.60138C8.67536 9.62882 9.81939 10.5635 11.0374 11.395C11.1455 11.4891 11.3063 11.4891 11.4145 11.395C11.8593 11.091 12.3116 10.8 12.7693 10.5145C13.0879 10.2886 13.4804 10.1918 13.8677 10.2436C13.9861 10.2623 14.1001 10.302 14.2046 10.3606C15.4141 11.0503 16.6223 11.7434 17.8295 12.4403C18.2175 12.6601 18.3988 13.2093 18.2633 13.7311L18.2631 13.731Z" fill="white"/>
</svg>
